<svg xmlns="http://www.w3.org/2000/svg" height="100%" width="100%" viewbox="0 0 100 100"
  class="text-slate-100" viewBox="0 0 215 215">
  <path fill-rule="evenodd" fill="currentColor"
    d="M195.2 125c-8.339 41.08-44.659 72-88.2 72v17.999l.5.001c59.371 0 107.5-48.129 107.5-107.5v-.166l-.001-.334H138a9 9 0 0 0-9 9 9 9 0 0 0 9 9h57.2Zm-87.7 90c59.371 0 107.5-48.129 107.5-107.5C215 48.13 166.871 0 107.5 0 48.13 0 0 48.13 0 107.5 0 166.871 48.13 215 107.5 215ZM17 107c0-49.706 40.294-90 90-90v180c-49.706 0-90-40.294-90-90Z"
    clip-rule="evenodd" />
</svg>